{"title":"Ultra Gorgeous Brunette Drilled at home (homemade)[VPSR]","uid":10749059,"size":359582042,"categoryP":"porn","categoryS":"other","magnet":"?xt=urn:btih:e7228168af203577755300137c3d561c12f59ef6&amp;dn=Ultra+Gorgeous+Brunette+Drilled+at+home+%28homemade%29%5BVPSR%5D&amp;tr=udp%3A%2F%2Ftracker.openbittorrent.com%3A80&amp;tr=udp%3A%2F%2Fopen.demonii.com%3A1337&amp;tr=udp%3A%2F%2Ftracker.coppersurfer.tk%3A6969&amp;tr=udp%3A%2F%2Fexodus.desync.com%3A6969","seeders":2,"leechers":0,"uploader":"vpsr","files":1,"time":1407856290,"description":"Ultra Gorgeous Brunette Drilled at home (homemade)[VPSR]\n\n &lt;a href=&quot;\nhttp://s25.postimg.org/s5kmrbjq7/aaa.jpg&quot; rel=&quot;nofollow&quot; target=&quot;_NEW&quot;&gt;\nhttp://s25.postimg.org/s5kmrbjq7/aaa.jpg&lt;/a&gt;\n\n\n &lt;a href=&quot;\nhttp://s25.postimg.org/v0xpy6nq7/Ultra_Gorgeous_Brunette_Drilled_at_home_homemad.jpg&quot; rel=&quot;nofollow&quot; target=&quot;_NEW&quot;&gt;\nhttp://s25.postimg.org/v0xpy6nq7/Ultra_Gorgeous_Brunette_Drilled_at_home_homemad.jpg&lt;/a&gt;\n\n\nFILE INFO\n\n\nGeneral\nComplete name                            : C:UsersJay  BeeDesktopseed filesETUltra Gorgeous Brunette Drilled at home (homemade)[VPSR].mp4.flv\nFormat                                   : Flash Video\nFile size                                : 343 MiB\nDuration                                 : 1h 22mn\nOverall bit rate                         : 581 Kbps\nTagged date                              : UTC 2014-08-10 23:40:53\nTagging application                      : flvtool++ (Facebook, Motion project, dweatherford)\n\nVideo\nFormat                                   : AVC\nFormat/Info                              : Advanced Video Codec\nFormat profile                           : &lt;a class=&quot;__cf_email__&quot; href=&quot;/cdn-cgi/l/email-protection&quot; data-cfemail=&quot;aee6c7c9c6eee29c809f&quot;&gt;[email&amp;#160;protected]&lt;/a&gt;&lt;script cf-hash='f9e31' type=&quot;text/javascript&quot;&gt;\n/* &lt;![CDATA[ */!function(){try{var t=&quot;currentScript&quot;in document?document.currentScript:function(){for(var t=document.getElementsByTagName(&quot;script&quot;),e=t.length;e--;)if(t[e].getAttribute(&quot;cf-hash&quot;))return t[e]}();if(t&amp;&amp;t.previousSibling){var e,r,n,i,c=t.previousSibling,a=c.getAttribute(&quot;data-cfemail&quot;);if(a){for(e=&quot;&quot;,r=parseInt(a.substr(0,2),16),n=2;a.length-n;n+=2)i=parseInt(a.substr(n,2),16)^r,e+=String.fromCharCode(i);e=document.createTextNode(e),c.parentNode.replaceChild(e,c)}}}catch(u){}}();/* ]]&gt; */&lt;/script&gt;\nFormat settings, CABAC                   : Yes\nFormat settings, ReFrames                : 4 frames\nCodec ID                                 : 7\nDuration                                 : 1h 22mn\nBit rate                                 : 512 Kbps\nWidth                                    : 432 pixels\nHeight                                   : 240 pixels\nDisplay aspect ratio                     : 16:9\nFrame rate mode                          : Constant\nFrame rate                               : 24.000 fps\nColor space                              : YUV\nChroma subsampling                       : 4:2:0\nBit depth                                : 8 bits\nScan type                                : Progressive\nBits/(Pixel*Frame)                       : 0.206\nStream size                              : 303 MiB (88%)\nWriting library                          : x264 core 119\nEncoding settings                        : cabac=1 / ref=2 / deblock=1:0:0 / analyse=0x3:0x113 / me=hex / subme=6 / psy=1 / psy_rd=1.00:0.00 / mixed_ref=0 / me_range=16 / chroma_me=1 / trellis=0 / 8x8dct=1 / cqm=0 / deadzone=21,11 / fast_pskip=1 / chroma_qp_offset=-2 / threads=1 / sliced_threads=0 / nr=0 / decimate=1 / interlaced=0 / bluray_compat=0 / constrained_intra=0 / bframes=16 / b_pyramid=2 / b_adapt=0 / b_bias=0 / direct=2 / weightb=1 / open_gop=0 / weightp=2 / keyint=250 / keyint_min=25 / scenecut=40 / intra_refresh=0 / rc_lookahead=40 / rc=2pass / mbtree=1 / bitrate=512 / ratetol=1.0 / qcomp=0.50 / qpmin=10 / qpmax=51 / qpstep=4 / cplxblur=20.0 / qblur=0.5 / ip_ratio=1.41 / aq=1:1.00\n\nAudio\nFormat                                   : AAC\nFormat/Info                              : Advanced Audio Codec\nFormat profile                           : LC\nCodec ID                                 : 10\nDuration                                 : 1h 22mn\nBit rate                                 : 59.6 Kbps\nChannel(s)                               : 2 channels\nChannel positions                        : Front: L R\nSampling rate                            : 44.1 KHz\nCompression mode                         : Lossy\nStream size                              : 35.2 MiB (10%)\n\n","torrent":{"xt":"urn:btih:e7228168af203577755300137c3d561c12f59ef6","amp;dn":"Ultra+Gorgeous+Brunette+Drilled+at+home+%28homemade%29%5BVPSR%5D","amp;tr":["udp%3A%2F%2Ftracker.openbittorrent.com%3A80","udp%3A%2F%2Fopen.demonii.com%3A1337","udp%3A%2F%2Ftracker.coppersurfer.tk%3A6969","udp%3A%2F%2Fexodus.desync.com%3A6969"],"infoHash":"e7228168af203577755300137c3d561c12f59ef6","infoHashBuffer":{"type":"Buffer","data":[231,34,129,104,175,32,53,119,117,83,0,19,124,61,86,28,18,245,158,246]},"announce":[],"urlList":[]}}